
<svg xmlns="http://www.w3.org/2000/svg" width="19.662" height="18.843" viewBox="0 0 19.662 18.843">
  <path class="download" d="M17.38,8.21c0.03-0.21,0.04-0.43,0.04-0.65c0-2.72-2.21-4.94-4.94-4.94c-1.58,0-3.03,0.75-3.95,1.97
		C8.22,4.52,7.89,4.48,7.55,4.48c-2.38,0-4.32,1.94-4.32,4.32c0,0.06,0,0.12,0,0.18c-1.79,0.53-3.09,2.19-3.09,4.14
		c0,2.38,1.94,4.32,4.32,4.32h10.49c2.72,0,4.94-2.21,4.94-4.94C19.9,10.7,18.91,9.07,17.38,8.21z M14.96,16.2H4.47
		c-1.7,0-3.09-1.38-3.09-3.09s1.38-3.09,3.09-3.09c0.09,0,0.18,0.02,0.27,0.03C4.57,9.67,4.47,9.25,4.47,8.8
		c0-1.7,1.38-3.09,3.09-3.09c0.56,0,1.07,0.16,1.52,0.42c0.56-1.33,1.88-2.27,3.41-2.27c2.05,0,3.7,1.66,3.7,3.7
		c0,0.49-0.1,0.95-0.27,1.38c1.58,0.43,2.74,1.85,2.74,3.56C18.66,14.55,17.01,16.2,14.96,16.2z" transform="translate(0 -0.5)" fill="#8c8c8e"/>
	<polygon class="st0" points="11.26,7.56 8.79,7.56 8.79,11.27 6.32,11.27 10.02,14.97 13.73,11.27 11.26,11.27" transform="translate(0 -0.5)" fill="#8c8c8e"/>
</svg>